# xmcd
#
# Track frame offsets:
#	150
#	14853
#	29814
#	43277
#	57910
#	70839
#	85273
#	98831
#	117697
#	132543
#	150840
#	166464
#	182324
#	195610
#
# Disc length: 2829 seconds
#
# Revision: 0
# Processed by: cddbd v1.5.1PL2 Copyright (c) Steve Scherf et al.
# Submitted via: EasyCDDAExtractor 9.0.0.1
#
DISCID=c70b0b0e
DTITLE=Talagaço - Tempero Brasileiro
DYEAR=2005
DGENRE=Gaucha
TTITLE0=Batidão da Nega Xica
TTITLE1=Ja Era
TTITLE2=Tempero Brasileiro
TTITLE3=Bagual e Meio
TTITLE4=Mal-Humorada
TTITLE5=Só Tenho a Lua
TTITLE6=Se é Saudade "nóis" não Quer
TTITLE7=Mãos de Tocar Baile
TTITLE8=Não Para Não!
TTITLE9=Olhos de Luar
TTITLE10=Loucura no Bailão "Louca de Boa" (ao vivo)
TTITLE11=O Que achou do Balanção? (ao vivo)
TTITLE12=Menina Linda (ao vivo)
TTITLE13=Balança Brasil (ao vivo)
EXTD=
EXTT0=
EXTT1=
EXTT2=
EXTT3=
EXTT4=
EXTT5=
EXTT6=
EXTT7=
EXTT8=
EXTT9=
EXTT10=
EXTT11=
EXTT12=
EXTT13=
PLAYORDER=
